pose19.1
version=1
nRows=4
nColumns=213
inDegrees=yes
endheader
time	platform_rx	platform_ry	platform_rz	platform_ty	pelvis_tilt	pelvis_list	pelvis_rotation	pelvis_tx	pelvis_ty	pelvis_tz	hip_flexion_r	hip_adduction_r	hip_rotation_r	knee_angle_r	knee_angle_r_beta	ankle_angle_r	subtalar_angle_r	mtp_angle_r	hip_flexion_l	hip_adduction_l	hip_rotation_l	knee_angle_l	knee_angle_l_beta	ankle_angle_l	subtalar_angle_l	mtp_angle_l	lumbar_extension	lumbar_bending	lumbar_rotation	arm_flex_r	arm_add_r	arm_rot_r	elbow_flex_r	pro_sup_r	wrist_flex_r	wrist_dev_r	arm_flex_l	arm_add_l	arm_rot_l	elbow_flex_l	pro_sup_l	wrist_flex_l	wrist_dev_l	platform_rx_u	platform_ry_u	platform_rz_u	platform_ty_u	pelvis_tilt_u	pelvis_list_u	pelvis_rotation_u	pelvis_tx_u	pelvis_ty_u	pelvis_tz_u	hip_flexion_r_u	hip_adduction_r_u	hip_rotation_r_u	knee_angle_r_u	knee_angle_r_beta_u	ankle_angle_r_u	subtalar_angle_r_u	mtp_angle_r_u	hip_flexion_l_u	hip_adduction_l_u	hip_rotation_l_u	knee_angle_l_u	knee_angle_l_beta_u	ankle_angle_l_u	subtalar_angle_l_u	mtp_angle_l_u	lumbar_extension_u	lumbar_bending_u	lumbar_rotation_u	arm_flex_r_u	arm_add_r_u	arm_rot_r_u	elbow_flex_r_u	pro_sup_r_u	wrist_flex_r_u	wrist_dev_r_u	arm_flex_l_u	arm_add_l_u	arm_rot_l_u	elbow_flex_l_u	pro_sup_l_u	wrist_flex_l_u	wrist_dev_l_u	addbrev_r.activation	addlong_r.activation	addlong_r.fiber_length	addmagDist_r.activation	addmagIsch_r.activation	addmagIsch_r.fiber_length	addmagMid_r.activation	addmagProx_r.activation	bflh_r.activation	bflh_r.fiber_length	bfsh_r.activation	edl_r.activation	edl_r.fiber_length	ehl_r.activation	ehl_r.fiber_length	fdl_r.activation	fdl_r.fiber_length	fhl_r.activation	fhl_r.fiber_length	gaslat_r.activation	gaslat_r.fiber_length	gasmed_r.activation	gasmed_r.fiber_length	glmax1_r.activation	glmax2_r.activation	glmax3_r.activation	glmed1_r.activation	glmed2_r.activation	glmed3_r.activation	glmin1_r.activation	glmin2_r.activation	glmin3_r.activation	glmin3_r.fiber_length	grac_r.activation	iliacus_r.activation	perbrev_r.activation	perbrev_r.fiber_length	perlong_r.activation	perlong_r.fiber_length	piri_r.activation	piri_r.fiber_length	psoas_r.activation	recfem_r.activation	recfem_r.fiber_length	sart_r.activation	semimem_r.activation	semimem_r.fiber_length	semiten_r.activation	semiten_r.fiber_length	soleus_r.activation	soleus_r.fiber_length	tfl_r.activation	tfl_r.fiber_length	tibant_r.activation	tibant_r.fiber_length	tibpost_r.activation	tibpost_r.fiber_length	vasint_r.activation	vasint_r.fiber_length	vaslat_r.activation	vaslat_r.fiber_length	vasmed_r.activation	vasmed_r.fiber_length	addbrev_l.activation	addlong_l.activation	addlong_l.fiber_length	addmagDist_l.activation	addmagIsch_l.activation	addmagIsch_l.fiber_length	addmagMid_l.activation	addmagProx_l.activation	bflh_l.activation	bflh_l.fiber_length	bfsh_l.activation	edl_l.activation	edl_l.fiber_length	ehl_l.activation	ehl_l.fiber_length	fdl_l.activation	fdl_l.fiber_length	fhl_l.activation	fhl_l.fiber_length	gaslat_l.activation	gaslat_l.fiber_length	gasmed_l.activation	gasmed_l.fiber_length	glmax1_l.activation	glmax2_l.activation	glmax3_l.activation	glmed1_l.activation	glmed2_l.activation	glmed3_l.activation	glmin1_l.activation	glmin2_l.activation	glmin3_l.activation	glmin3_l.fiber_length	grac_l.activation	iliacus_l.activation	perbrev_l.activation	perbrev_l.fiber_length	perlong_l.activation	perlong_l.fiber_length	piri_l.activation	piri_l.fiber_length	psoas_l.activation	recfem_l.activation	recfem_l.fiber_length	sart_l.activation	semimem_l.activation	semimem_l.fiber_length	semiten_l.activation	semiten_l.fiber_length	soleus_l.activation	soleus_l.fiber_length	tfl_l.activation	tfl_l.fiber_length	tibant_l.activation	tibant_l.fiber_length	tibpost_l.activation	tibpost_l.fiber_length	vasint_l.activation	vasint_l.fiber_length	vaslat_l.activation	vaslat_l.fiber_length	vasmed_l.activation	vasmed_l.fiber_length
      0.00540287	     20.00000000	     -0.00000000	     -0.00000000	      0.25000000	    -26.27501179	     -0.00000003	     -0.00000001	     -0.04492927	      0.56957310	     -0.00000000	     99.58372346	    -18.08983763	     -1.03722354	    101.45889025	    101.45889025	     26.48085071	     -0.00000000	     -0.00000000	     99.58372142	    -18.08983428	     -1.03722352	    101.45890415	    101.45890415	     26.48083113	      0.00000000	     -0.00000000	     -0.50874698	      0.00000004	      0.00000000	     90.06344046	     -0.00510268	     89.83341907	      0.16112101	      0.14893746	      0.00000000	      0.00000000	     90.06351718	     -0.00509989	     89.82557098	      0.16111896	      0.14893780	     -0.00000000	      0.00000000	      0.00000000	     -0.00000000	      0.00000000	     -0.00000000	    149.46204275	     -0.00000963	     -0.00000414	      0.02575043	      0.21263056	     -0.00000003	   -154.77285897	     -9.85727226	     24.67932715	    -18.67290164	    -18.67290164	   -904.10546134	     -0.00000000	     -0.00000000	   -154.77286944	     -9.85726835	     24.67933418	    -18.67294875	    -18.67294875	   -904.10485586	      0.00000000	      0.00000000	   -187.75114709	      0.00001379	      0.00000189	     41.10856077	     -1.87186236	     -1.22442001	      5.23643044	      0.75419455	      0.00000000	     -0.00000000	     41.10823053	     -1.87164030	     -1.22445130	      5.23567486	      0.75432050	     -0.00000000	      0.00000000	      0.01000000	      0.01000000	      0.10102270	      0.01000000	      0.01000000	      0.22242721	      0.01000000	      0.01000000	      0.01000000	      0.12262731	      0.01000000	      0.01000000	      0.05244461	      0.01000000	      0.06005696	      0.01000000	      0.04759399	      0.01000000	      0.05617392	      0.01000000	      0.05091699	      0.01000000	      0.03829771	      0.01000000	      0.01000000	      0.01000000	      0.01000000	      0.01000000	      0.01000000	      0.01000000	      0.01000000	      0.01000000	      0.04465797	      0.01000000	      0.01000000	      0.01000000	      0.05068849	      0.01000000	      0.05736396	      0.01000000	      0.03303061	      0.01000000	      0.01000000	      0.05151499	      0.01000000	      0.01000000	      0.07810130	      0.01000000	      0.22991914	      0.01000000	      0.06056205	      0.01000000	      0.02401564	      0.01000000	      0.04638528	      0.01000000	      0.04198809	      0.01000000	      0.13778874	      0.01000000	      0.13425940	      0.01000000	      0.13171254	      0.01000000	      0.01000000	      0.10102270	      0.01000000	      0.01000000	      0.22242720	      0.01000000	      0.01000000	      0.01000000	      0.12262730	      0.01000000	      0.01000000	      0.05244463	      0.01000000	      0.06005697	      0.01000000	      0.04759399	      0.01000000	      0.05617392	      0.01000000	      0.05091697	      0.01000000	      0.03829769	      0.01000000	      0.01000000	      0.01000000	      0.01000000	      0.01000000	      0.01000000	      0.01000000	      0.01000000	      0.01000000	      0.04465797	      0.01000000	      0.01000000	      0.01000000	      0.05068848	      0.01000000	      0.05736396	      0.01000000	      0.03303061	      0.01000000	      0.01000000	      0.05151500	      0.01000000	      0.01000000	      0.07810130	      0.01000000	      0.22991913	      0.01000000	      0.06056204	      0.01000000	      0.02401564	      0.01000000	      0.04638529	      0.01000000	      0.04198809	      0.01000000	      0.13778875	      0.01000000	      0.13425941	      0.01000000	      0.13171255
      0.00587350	     20.00000000	     -0.00000000	     -0.00000000	      0.25000000	    -26.20163875	     -0.00000003	     -0.00000001	     -0.04491666	      0.56967758	     -0.00000000	     99.50766283	    -18.09467367	     -1.02518729	    101.44950915	    101.44950915	     26.03875094	     -0.00000000	     -0.00000000	     99.50766079	    -18.09467031	     -1.02518727	    101.44952303	    101.44952303	     26.03873166	      0.00000000	     -0.00000000	     -0.60091569	      0.00000004	      0.00000001	     90.08362218	     -0.00602184	     89.83281760	      0.16369232	      0.14930917	      0.00000000	      0.00000000	     90.08369873	     -0.00601894	     89.82496949	      0.16368990	      0.14930957	     -0.00000000	      0.00000000	      0.00000000	      0.00000000	      0.00000000	     -0.00000000	    162.34343042	     -0.00001044	     -0.00000454	      0.02781703	      0.23134207	     -0.00000003	   -168.46493337	    -10.69361214	     26.45820487	    -21.22465201	    -21.22465201	   -974.40727387	     -0.00000000	     -0.00000000	   -168.46494493	    -10.69360801	     26.45821250	    -21.22470199	    -21.22470199	   -974.40661562	      0.00000000	      0.00000000	   -203.92795135	      0.00001494	      0.00000213	     44.65584979	     -2.03426770	     -1.33173389	      5.69083282	      0.82590054	      0.00000000	     -0.00000000	     44.65549076	     -2.03402567	     -1.33176802	      5.69000966	      0.82603785	     -0.00000000	      0.00000000	      0.01000000	      0.01000000	      0.10100530	      0.01000000	      0.01000000	      0.22238400	      0.01000000	      0.01000000	      0.01000000	      0.12260278	      0.01000000	      0.01000000	      0.05268716	      0.01000000	      0.06033031	      0.01000000	      0.04758477	      0.01000000	      0.05613780	      0.01000000	      0.05083269	      0.01000000	      0.03822817	      0.01000000	      0.01000000	      0.01000000	      0.01000000	      0.01000000	      0.01000000	      0.01000000	      0.01000000	      0.01000000	      0.04464055	      0.01000000	      0.01000000	      0.01000000	      0.05066671	      0.01000000	      0.05733320	      0.01000000	      0.03301525	      0.01000000	      0.01000000	      0.05154294	      0.01000000	      0.01000000	      0.07808245	      0.01000000	      0.22988279	      0.01000000	      0.06041759	      0.01000000	      0.02401564	      0.01000000	      0.04668436	      0.01000000	      0.04196949	      0.01000000	      0.13778632	      0.01000000	      0.13425707	      0.01000000	      0.13171044	      0.01000000	      0.01000000	      0.10100529	      0.01000000	      0.01000000	      0.22238399	      0.01000000	      0.01000000	      0.01000000	      0.12260277	      0.01000000	      0.01000000	      0.05268717	      0.01000000	      0.06033032	      0.01000000	      0.04758477	      0.01000000	      0.05613779	      0.01000000	      0.05083268	      0.01000000	      0.03822815	      0.01000000	      0.01000000	      0.01000000	      0.01000000	      0.01000000	      0.01000000	      0.01000000	      0.01000000	      0.01000000	      0.04464055	      0.01000000	      0.01000000	      0.01000000	      0.05066671	      0.01000000	      0.05733320	      0.01000000	      0.03301525	      0.01000000	      0.01000000	      0.05154295	      0.01000000	      0.01000000	      0.07808245	      0.01000000	      0.22988278	      0.01000000	      0.06041758	      0.01000000	      0.02401564	      0.01000000	      0.04668437	      0.01000000	      0.04196948	      0.01000000	      0.13778632	      0.01000000	      0.13425707	      0.01000000	      0.13171044
      0.00703946	     20.00000000	     -0.00000000	     -0.00000000	      0.25000000	    -25.99378786	     -0.00000004	     -0.00000002	     -0.04488132	      0.56997445	     -0.00000000	     99.29136780	    -18.10834343	     -0.99191631	    101.42070441	    101.42070441	     24.80414806	     -0.00000000	     -0.00000000	     99.29136575	    -18.10834008	     -0.99191628	    101.42071822	    101.42071822	     24.80412962	      0.00000000	     -0.00000000	     -0.86199800	      0.00000006	      0.00000001	     90.14080566	     -0.00862879	     89.83110843	      0.17098543	      0.15038166	      0.00000000	      0.00000000	     90.14088175	     -0.00862558	     89.82326028	      0.17098194	      0.15038224	     -0.00000000	      0.00000000	     -0.00000000	      0.00000000	     -0.00000000	     -0.00000000	    194.16817598	     -0.00001246	     -0.00000557	      0.03275535	      0.27795306	     -0.00000004	   -202.60817892	    -12.75078146	     30.52976935	    -28.39103538	    -28.39103538	  -1141.65005615	      0.00000000	     -0.00000000	   -202.60819324	    -12.75077684	     30.52977858	    -28.39109121	    -28.39109121	  -1141.64926803	      0.00000000	     -0.00000000	   -243.88531076	      0.00001777	      0.00000279	     53.42918901	     -2.43784288	     -1.60089389	      6.82022377	      1.01730307	     -0.00000000	     -0.00000000	     53.42875815	     -2.43754979	     -1.60093528	      6.81922846	      1.01746950	     -0.00000000	      0.00000000	      0.01000000	      0.01000000	      0.10095487	      0.01000000	      0.01000000	      0.22226717	      0.01000000	      0.01000000	      0.01000000	      0.12253125	      0.01000000	      0.01000000	      0.05337821	      0.01000000	      0.06110587	      0.01000000	      0.04755486	      0.01000000	      0.05602452	      0.01000000	      0.05062407	      0.01000000	      0.03805609	      0.01000000	      0.01000000	      0.01000000	      0.01000000	      0.01000000	      0.01000000	      0.01000000	      0.01000000	      0.01000000	      0.04459093	      0.01000000	      0.01000000	      0.01000000	      0.05060170	      0.01000000	      0.05723842	      0.01000000	      0.03297068	      0.01000000	      0.01000000	      0.05162974	      0.01000000	      0.01000000	      0.07802509	      0.01000000	      0.22977891	      0.01000000	      0.06000921	      0.01000000	      0.02401564	      0.01000000	      0.04753229	      0.01000000	      0.04190973	      0.01000000	      0.13777881	      0.01000000	      0.13424980	      0.01000000	      0.13170392	      0.01000000	      0.01000000	      0.10095487	      0.01000000	      0.01000000	      0.22226717	      0.01000000	      0.01000000	      0.01000000	      0.12253124	      0.01000000	      0.01000000	      0.05337822	      0.01000000	      0.06110588	      0.01000000	      0.04755486	      0.01000000	      0.05602452	      0.01000000	      0.05062405	      0.01000000	      0.03805607	      0.01000000	      0.01000000	      0.01000000	      0.01000000	      0.01000000	      0.01000000	      0.01000000	      0.01000000	      0.01000000	      0.04459093	      0.01000000	      0.01000000	      0.01000000	      0.05060170	      0.01000000	      0.05723842	      0.01000000	      0.03297068	      0.01000000	      0.01000000	      0.05162974	      0.01000000	      0.01000000	      0.07802509	      0.01000000	      0.22977890	      0.01000000	      0.06000920	      0.01000000	      0.02401564	      0.01000000	      0.04753230	      0.01000000	      0.04190973	      0.01000000	      0.13777881	      0.01000000	      0.13424980	      0.01000000	      0.13170392
      0.00771870	     20.00000000	     -0.00000000	     -0.00000000	      0.25000000	    -25.85561946	     -0.00000005	     -0.00000002	     -0.04485813	      0.57017253	     -0.00000000	     99.14693828	    -18.11740801	     -0.97044620	    101.39982710	    101.39982710	     23.99711343	     -0.00000000	     -0.00000000	     99.14693622	    -18.11740465	     -0.97044617	    101.39984088	    101.39984088	     23.99709555	      0.00000000	     -0.00000000	     -1.03553916	      0.00000008	      0.00000001	     90.17883023	     -0.01036482	     89.82996706	      0.17584233	      0.15111351	      0.00000000	      0.00000000	     90.17890602	     -0.01036140	     89.82211888	      0.17583813	      0.15111421	     -0.00000000	      0.00000000	     -0.00000000	      0.00000000	     -0.00000000	     -0.00000000	    212.65072554	     -0.00001368	     -0.00000626	      0.03550726	      0.30530335	     -0.00000004	   -222.67617098	    -13.93826362	     32.65587893	    -33.15555384	    -33.15555384	  -1233.97132403	      0.00000000	     -0.00000000	   -222.67618691	    -13.93825899	     32.65588926	    -33.15561213	    -33.15561213	  -1233.97046069	      0.00000000	     -0.00000000	   -267.08309287	      0.00001944	      0.00000329	     58.52999721	     -2.67388364	     -1.76011777	      7.48092549	      1.13888498	     -0.00000000	     -0.00000000	     58.52952411	     -2.67355963	     -1.76016356	      7.47982641	      1.13906908	     -0.00000000	      0.00000000	      0.01000000	      0.01000000	      0.10092073	      0.01000000	      0.01000000	      0.22214083	      0.01000000	      0.01000000	      0.01000000	      0.12248257	      0.01000000	      0.01000000	      0.05383966	      0.01000000	      0.06162236	      0.01000000	      0.04753199	      0.01000000	      0.05594319	      0.01000000	      0.05050267	      0.01000000	      0.03795598	      0.01000000	      0.01000000	      0.01000000	      0.01000000	      0.01000000	      0.01000000	      0.01000000	      0.01000000	      0.01000000	      0.04455768	      0.01000000	      0.01000000	      0.01000000	      0.05055665	      0.01000000	      0.05717139	      0.01000000	      0.03294052	      0.01000000	      0.01000000	      0.05169100	      0.01000000	      0.01000000	      0.07798457	      0.01000000	      0.22970931	      0.01000000	      0.05973399	      0.01000000	      0.02401564	      0.01000000	      0.04809823	      0.01000000	      0.04186559	      0.01000000	      0.13777332	      0.01000000	      0.13424448	      0.01000000	      0.13169915	      0.01000000	      0.01000000	      0.10092072	      0.01000000	      0.01000000	      0.22214082	      0.01000000	      0.01000000	      0.01000000	      0.12248256	      0.01000000	      0.01000000	      0.05383967	      0.01000000	      0.06162237	      0.01000000	      0.04753199	      0.01000000	      0.05594318	      0.01000000	      0.05050265	      0.01000000	      0.03795596	      0.01000000	      0.01000000	      0.01000000	      0.01000000	      0.01000000	      0.01000000	      0.01000000	      0.01000000	      0.01000000	      0.04455768	      0.01000000	      0.01000000	      0.01000000	      0.05055665	      0.01000000	      0.05717138	      0.01000000	      0.03294052	      0.01000000	      0.01000000	      0.05169100	      0.01000000	      0.01000000	      0.07798456	      0.01000000	      0.22970929	      0.01000000	      0.05973398	      0.01000000	      0.02401564	      0.01000000	      0.04809824	      0.01000000	      0.04186558	      0.01000000	      0.13777332	      0.01000000	      0.13424449	      0.01000000	      0.13169915
